<svg xmlns="http://www.w3.org/2000/svg" xmlns:xlink="http://www.w3.org/1999/xlink" width="500" zoomAndPan="magnify" viewBox="0 0 375 374.999991" height="500" preserveAspectRatio="xMidYMid meet" version="1.0"><defs><clipPath id="4d7121f5ac"><path d="M 187.5 0 C 83.945312 0 0 83.945312 0 187.5 C 0 291.054688 83.945312 375 187.5 375 C 291.054688 375 375 291.054688 375 187.5 C 375 83.945312 291.054688 0 187.5 0 Z M 187.5 0 " clip-rule="nonzero"/></clipPath></defs><g clip-path="url(#4d7121f5ac)"><rect x="-37.5" width="450" fill="#ffffff" y="-37.499999" height="449.999989" fill-opacity="1"/></g><path fill="#000000" d="M 175.222656 0.292969 C 174.414062 0.367188 171.847656 0.621094 169.539062 0.804688 C 116.28125 5.601562 66.394531 34.3125 34.796875 78.433594 C 17.203125 102.96875 5.953125 130.796875 1.699219 160.273438 C 0.195312 170.5625 0.015625 173.605469 0.015625 187.554688 C 0.015625 201.507812 0.195312 204.546875 1.699219 214.835938 C 11.890625 285.175781 61.996094 344.277344 129.953125 366.175781 C 142.121094 370.09375 154.949219 372.765625 169.539062 374.378906 C 175.222656 375 199.777344 375 205.460938 374.378906 C 230.640625 371.59375 251.976562 365.371094 273.015625 354.640625 C 276.238281 352.992188 276.863281 352.554688 276.421875 352.1875 C 276.128906 351.96875 262.382812 333.550781 245.890625 311.285156 L 215.90625 270.824219 L 178.335938 215.273438 C 157.664062 184.734375 140.65625 159.761719 140.507812 159.761719 C 140.363281 159.726562 140.214844 184.40625 140.144531 214.542969 C 140.03125 267.308594 139.996094 269.433594 139.335938 270.675781 C 138.382812 272.472656 137.648438 273.203125 136.109375 274.007812 C 134.9375 274.59375 133.910156 274.703125 128.375 274.703125 L 122.035156 274.703125 L 120.347656 273.644531 C 119.25 272.945312 118.445312 272.03125 117.894531 270.96875 L 117.125 269.320312 L 117.199219 195.902344 L 117.308594 122.449219 L 118.445312 121.019531 C 119.03125 120.25 120.277344 119.261719 121.15625 118.789062 C 122.660156 118.054688 123.246094 117.980469 129.585938 117.980469 C 137.0625 117.980469 138.308594 118.273438 140.253906 120.398438 C 140.800781 120.984375 161.144531 151.597656 185.484375 188.46875 C 209.824219 225.34375 243.105469 275.691406 259.453125 300.410156 L 289.140625 345.339844 L 290.644531 344.351562 C 303.949219 335.710938 318.027344 323.40625 329.167969 310.589844 C 352.882812 283.382812 368.167969 250.207031 373.300781 214.835938 C 374.804688 204.546875 374.984375 201.507812 374.984375 187.554688 C 374.984375 173.605469 374.804688 170.5625 373.300781 160.273438 C 363.109375 89.933594 313.003906 30.832031 245.046875 8.933594 C 233.0625 5.054688 220.304688 2.378906 206.011719 0.769531 C 202.492188 0.402344 178.261719 0 175.222656 0.292969 Z M 251.976562 113.585938 C 253.734375 114.464844 255.164062 116.152344 255.675781 117.910156 C 255.96875 118.859375 256.042969 139.21875 255.96875 185.101562 L 255.859375 250.941406 L 244.242188 233.144531 L 232.585938 215.347656 L 232.585938 167.488281 C 232.585938 136.546875 232.730469 119.152344 232.949219 118.3125 C 233.539062 116.261719 234.820312 114.648438 236.578125 113.699219 C 238.082031 112.929688 238.632812 112.855469 244.386719 112.855469 C 249.8125 112.855469 250.765625 112.929688 251.976562 113.585938 Z M 251.976562 113.585938 " fill-opacity="1" fill-rule="nonzero"/><path fill="#000000" d="M 287.308594 346.144531 C 286.027344 346.949219 285.625 347.5 286.757812 346.878906 C 287.566406 346.402344 288.886719 345.414062 288.664062 345.375 C 288.554688 345.375 287.933594 345.742188 287.308594 346.144531 Z M 284.78125 347.792969 C 284.121094 348.304688 284.121094 348.34375 284.925781 347.941406 C 285.367188 347.71875 285.734375 347.464844 285.734375 347.390625 C 285.734375 347.097656 285.550781 347.171875 284.78125 347.792969 Z M 282.949219 348.890625 C 282.289062 349.40625 282.289062 349.441406 283.09375 349.039062 C 283.535156 348.820312 283.902344 348.5625 283.902344 348.488281 C 283.902344 348.195312 283.71875 348.269531 282.949219 348.890625 Z M 281.113281 349.988281 C 280.453125 350.503906 280.453125 350.539062 281.261719 350.136719 C 281.703125 349.917969 282.066406 349.660156 282.066406 349.585938 C 282.066406 349.292969 281.882812 349.367188 281.113281 349.988281 Z M 278.328125 351.453125 C 276.9375 352.1875 277.007812 352.480469 278.402344 351.785156 C 279.027344 351.453125 279.503906 351.125 279.503906 351.050781 C 279.503906 350.796875 279.464844 350.832031 278.328125 351.453125 Z M 278.328125 351.453125 " fill-opacity="1" fill-rule="nonzero"/></svg>