<svg xmlns="http://www.w3.org/2000/svg" xmlns:xlink="http://www.w3.org/1999/xlink" width="500" zoomAndPan="magnify" viewBox="0 0 375 374.999991" height="500" preserveAspectRatio="xMidYMid meet" version="1.0"><defs><clipPath id="3fb71c84d9"><path d="M 187.5 0 C 83.945312 0 0 83.945312 0 187.5 C 0 291.054688 83.945312 375 187.5 375 C 291.054688 375 375 291.054688 375 187.5 C 375 83.945312 291.054688 0 187.5 0 Z M 187.5 0 " clip-rule="nonzero"/></clipPath><clipPath id="75ee26d75c"><path d="M 6.132812 6 L 369.132812 6 L 369.132812 368.953125 L 6.132812 368.953125 Z M 6.132812 6 " clip-rule="nonzero"/></clipPath></defs><g clip-path="url(#3fb71c84d9)"><rect x="-37.5" width="450" fill="#ffffff" y="-37.499999" height="449.999989" fill-opacity="1"/></g><g clip-path="url(#75ee26d75c)"><path fill="#000000" d="M 175.746094 6.238281 C 174.964844 6.308594 172.480469 6.554688 170.246094 6.734375 C 118.695312 11.378906 70.40625 39.167969 39.820312 81.878906 C 22.789062 105.628906 11.898438 132.566406 7.78125 161.101562 C 6.328125 171.058594 6.152344 174.003906 6.152344 187.507812 C 6.152344 201.011719 6.328125 203.953125 7.78125 213.914062 C 17.644531 282.003906 66.148438 339.214844 131.925781 360.410156 C 143.707031 364.203125 156.125 366.792969 170.246094 368.351562 C 175.746094 368.953125 199.515625 368.953125 205.015625 368.351562 C 229.390625 365.65625 250.039062 359.632812 270.40625 349.246094 C 273.527344 347.652344 274.132812 347.226562 273.707031 346.871094 C 273.421875 346.660156 260.117188 328.828125 244.152344 307.277344 L 215.128906 268.109375 L 178.761719 214.339844 C 158.75 184.777344 142.289062 160.605469 142.144531 160.605469 C 142.003906 160.570312 141.863281 184.457031 141.789062 213.628906 C 141.683594 264.707031 141.648438 266.765625 141.011719 267.96875 C 140.089844 269.707031 139.378906 270.414062 137.886719 271.195312 C 136.753906 271.761719 135.757812 271.867188 130.402344 271.867188 L 124.265625 271.867188 L 122.632812 270.839844 C 121.566406 270.167969 120.785156 269.28125 120.253906 268.253906 L 119.507812 266.65625 L 119.582031 195.589844 L 119.6875 124.484375 L 120.785156 123.101562 C 121.355469 122.359375 122.5625 121.402344 123.414062 120.941406 C 124.867188 120.230469 125.433594 120.160156 131.574219 120.160156 C 138.8125 120.160156 140.015625 120.445312 141.898438 122.5 C 142.429688 123.066406 162.121094 152.699219 185.679688 188.394531 C 209.238281 224.085938 241.453125 272.824219 257.277344 296.75 L 286.019531 340.242188 L 287.472656 339.285156 C 300.351562 330.921875 313.976562 319.011719 324.761719 306.605469 C 347.71875 280.269531 362.511719 248.15625 367.480469 213.914062 C 368.933594 203.953125 369.113281 201.011719 369.113281 187.507812 C 369.113281 174.003906 368.933594 171.058594 367.480469 161.101562 C 357.617188 93.007812 309.113281 35.800781 243.335938 14.601562 C 231.734375 10.84375 219.386719 8.257812 205.546875 6.699219 C 202.144531 6.34375 178.691406 5.953125 175.746094 6.238281 Z M 250.039062 115.90625 C 251.742188 116.757812 253.128906 118.386719 253.625 120.089844 C 253.90625 121.011719 253.980469 140.71875 253.90625 185.132812 L 253.800781 248.863281 L 242.554688 231.636719 L 231.273438 214.410156 L 231.273438 168.082031 C 231.273438 138.132812 231.414062 121.292969 231.625 120.480469 C 232.195312 118.496094 233.4375 116.933594 235.140625 116.011719 C 236.59375 115.269531 237.125 115.199219 242.695312 115.199219 C 247.949219 115.199219 248.871094 115.269531 250.039062 115.90625 Z M 250.039062 115.90625 " fill-opacity="1" fill-rule="nonzero"/></g><path fill="#000000" d="M 284.242188 341.023438 C 283 341.800781 282.613281 342.335938 283.710938 341.730469 C 284.492188 341.269531 285.769531 340.3125 285.554688 340.277344 C 285.449219 340.277344 284.847656 340.632812 284.242188 341.023438 Z M 281.796875 342.617188 C 281.15625 343.113281 281.15625 343.148438 281.9375 342.757812 C 282.363281 342.546875 282.71875 342.296875 282.71875 342.226562 C 282.71875 341.945312 282.539062 342.015625 281.796875 342.617188 Z M 280.019531 343.679688 C 279.382812 344.175781 279.382812 344.210938 280.164062 343.824219 C 280.589844 343.609375 280.945312 343.363281 280.945312 343.292969 C 280.945312 343.007812 280.765625 343.078125 280.023438 343.679688 Z M 278.246094 344.746094 C 277.609375 345.242188 277.609375 345.277344 278.390625 344.886719 C 278.816406 344.671875 279.171875 344.425781 279.171875 344.355469 C 279.171875 344.070312 278.992188 344.140625 278.246094 344.746094 Z M 275.550781 346.164062 C 274.203125 346.871094 274.273438 347.15625 275.621094 346.480469 C 276.226562 346.164062 276.6875 345.84375 276.6875 345.773438 C 276.6875 345.523438 276.652344 345.558594 275.550781 346.164062 Z M 275.550781 346.164062 " fill-opacity="1" fill-rule="nonzero"/></svg>